<svg xmlns="http://www.w3.org/2000/svg" viewBox="0 0 410 284" width="410" height="284" role="img" aria-label="Dermatio" font-family="Inter, 'Segoe UI', system-ui, -apple-system, 'Helvetica Neue', Arial, sans-serif">
<defs>
<linearGradient id="dermatiob" x1="0" y1="0" x2="1" y2="1"><stop offset="0" stop-color="#3B1522"/><stop offset="1" stop-color="#0E1020"/></linearGradient>
<radialGradient id="dermatiog" cx="0.85" cy="0" r="0.8"><stop offset="0" stop-color="#FB7185" stop-opacity="0.32"/><stop offset="1" stop-color="#FB7185" stop-opacity="0"/></radialGradient>
<clipPath id="dermatioc"><rect x="0" y="0" width="410" height="284" rx="20"/></clipPath>
</defs>
<rect x="0.5" y="0.5" width="409" height="283" rx="20" fill="#0E1020" stroke="#25294A"/>
<g clip-path="url(#dermatioc)">
<rect width="410" height="112" fill="url(#dermatiob)"/><rect width="410" height="112" fill="url(#dermatiog)"/>
<line x1="0" y1="112" x2="410" y2="112" stroke="#FB7185" stroke-opacity="0.28"/>
</g>
<line x1="92" y1="54" x2="318" y2="54" stroke="#fff" stroke-opacity="0.15" stroke-width="3" stroke-linecap="round"/><line x1="92" y1="54" x2="318" y2="54" stroke="#FB7185" stroke-width="3" stroke-linecap="round" stroke-dasharray="226" stroke-dashoffset="226"><animate attributeName="stroke-dashoffset" values="226;0;0" keyTimes="0;0.5;1" dur="6s" repeatCount="indefinite"/></line><g transform="translate(92 54)"><circle r="15" fill="#FB7185"/><path d="M-5.5 0.5 L-1.5 4.5 L6 -4" fill="none" stroke="#3A1421" stroke-width="2.6" stroke-linecap="round" stroke-linejoin="round"/></g><text x="92" y="92" font-size="11.5" fill="#FECDD3" text-anchor="middle">Cart</text><g transform="translate(205 54)"><circle r="15" fill="#FB7185"/><path d="M-5.5 0.5 L-1.5 4.5 L6 -4" fill="none" stroke="#3A1421" stroke-width="2.6" stroke-linecap="round" stroke-linejoin="round"/></g><text x="205" y="92" font-size="11.5" fill="#FECDD3" text-anchor="middle">Payment</text><g transform="translate(318 54)" opacity="0.25"><animate attributeName="opacity" values="0.25;0.25;1;1" keyTimes="0;0.45;0.5;1" dur="6s" repeatCount="indefinite"/><circle r="15" fill="#FB7185"/><path d="M-5.5 0.5 L-1.5 4.5 L6 -4" fill="none" stroke="#3A1421" stroke-width="2.6" stroke-linecap="round" stroke-linejoin="round"/></g><text x="318" y="92" font-size="11.5" fill="#FECDD3" text-anchor="middle">Confirmed</text>
<rect x="324" y="14" width="62" height="22" rx="11" fill="#000" fill-opacity="0.35" stroke="#fff" stroke-opacity="0.12"/>
<circle cx="339" cy="25" r="3.5" fill="#34D399"/><text x="349" y="29.5" font-size="11.5" font-weight="500" fill="#E5E7EB">Live</text>
<text x="28" y="148" font-size="23" font-weight="700" fill="#F1F5F9" letter-spacing="-0.4">Dermatio</text>
<text x="28" y="169" font-size="12.5" fill="#FB7185">dermatio.in</text>
<text x="382" y="169" font-size="12" fill="#7C84A3" text-anchor="end">Sole frontend developer</text>
<text x="28" y="196" font-size="14" fill="#B4BBD3">Skincare storefront with full cart-to-checkout</text>
<text x="28" y="216" font-size="14" fill="#B4BBD3">flow, Razorpay payments and order emails.</text>
<rect x="28" y="234" width="56" height="26" rx="13" fill="#fff" fill-opacity="0.06" stroke="#fff" stroke-opacity="0.10"/><text x="56.0" y="251.5" font-size="12" fill="#D5DAEE" text-anchor="middle">React</text><rect x="92" y="234" width="49" height="26" rx="13" fill="#fff" fill-opacity="0.06" stroke="#fff" stroke-opacity="0.10"/><text x="116.5" y="251.5" font-size="12" fill="#D5DAEE" text-anchor="middle">Vite</text><rect x="149" y="234" width="102" height="26" rx="13" fill="#fff" fill-opacity="0.06" stroke="#fff" stroke-opacity="0.10"/><text x="200.0" y="251.5" font-size="12" fill="#D5DAEE" text-anchor="middle">Tailwind CSS</text><rect x="259" y="234" width="76" height="26" rx="13" fill="#fff" fill-opacity="0.06" stroke="#fff" stroke-opacity="0.10"/><text x="297.0" y="251.5" font-size="12" fill="#D5DAEE" text-anchor="middle">Razorpay</text>
</svg>